<?xml version="1.0" standalone="no"?>
<svg width="1056" height="816" xmlns="http://www.w3.org/2000/svg" id="svgvm2"><g transform="translate(5,5)" style="font-family: sans-serif;"><g><g transform="translate(0, 0)"><g transform="translate(0,5)"><rect class="header-box" width="251.56962025316454" height="86" stroke="black" fill="white" rx="5"/><rect class="label-cover" x="8" y="-10" width="34.03125" height="18" fill="white" rx="5"/><text class="header-box-label" x="10" font-size="12" y="3">about</text><g class="header-box-content" transform="translate(5, 0)"><g transform="translate(0, 4.095238095238102)"><text font-size="12"><tspan x="4" y="42.4047619047619">Sigma rules heatmap</tspan></text></g></g></g></g><g transform="translate(264.8101265822785, 0)"><g transform="translate(0,5)"><rect class="header-box" width="251.56962025316454" height="86" stroke="black" fill="white" rx="5"/><rect class="label-cover" x="8" y="-10" width="107.390625" height="18" fill="white" rx="5"/><text class="header-box-label" x="10" font-size="12" y="3">domain &amp; platforms</text><g class="header-box-content" transform="translate(5, 0)"><g transform="translate(0, 2.0975609756097526)"><text font-size="12"><tspan x="4" y="23.426829268292682">Enterprise ATT&amp;CK v11</tspan></text><line x1="0" x2="241.56962025316454" y1="39.853658536585364" y2="39.853658536585364" stroke="#dddddd"/></g><g transform="translate(0, 44.048780487804876)"><text font-size="12"><tspan x="4" y="16.176829268292682">Office 365, SaaS, Google</tspan><tspan x="4" y="30.676829268292682">Workspace, IaaS, Azure AD</tspan></text></g></g></g></g><g transform="translate(529.620253164557, 0)"><g transform="translate(0,5)"><rect class="header-box" width="251.56962025316454" height="86" stroke="black" fill="white" rx="5"/><rect class="label-cover" x="8" y="-10" width="58.046875" height="18" fill="white" rx="5"/><text class="header-box-label" x="10" font-size="12" y="3">aggregate</text><g class="header-box-content" transform="translate(5, 0)"><g transform="translate(0, 4.095238095238102)"><text font-size="12"><tspan x="4" y="27.73809523809523">showing</tspan><tspan x="4" y="42.4047619047619">aggregate scores using</tspan><tspan x="4" y="57.07142857142856">the sum aggregate function</tspan></text></g></g></g></g><g transform="translate(794.4303797468355, 0)"><g transform="translate(0,5)"><rect class="header-box" width="251.56962025316454" height="86" stroke="black" fill="white" rx="5"/><rect class="label-cover" x="8" y="-10" width="40.046875" height="18" fill="white" rx="5"/><text class="header-box-label" x="10" font-size="12" y="3">legend</text><g class="header-box-content" transform="translate(5, 0)"><g transform="translate(0, 4.095238095238102)"><g transform="translate(0, 5)"><g class="legendCells"><g class="cell" transform="translate(0,0)"><rect class="swatch" height="15" width="40.26160337552742" style="fill: rgb(102, 177, 255);"/><text class="label" transform="translate(20.130802154541016,&#10;          25)" style="text-anchor: middle;">0.0</text></g><g class="cell" transform="translate(40.26160430908203,0)"><rect class="swatch" height="15" width="40.26160337552742" style="fill: rgb(163, 147, 251);"/><text class="label" transform="translate(20.130802154541016,&#10;          25)" style="text-anchor: middle;">1.0</text></g><g class="cell" transform="translate(80.52320861816406,0)"><rect class="swatch" height="15" width="40.26160337552742" style="fill: rgb(224, 117, 246);"/><text class="label" transform="translate(20.130802154541016,&#10;          25)" style="text-anchor: middle;">2.0</text></g><g class="cell" transform="translate(120.7848129272461,0)"><rect class="swatch" height="15" width="40.26160337552742" style="fill: rgb(255, 102, 216);"/><text class="label" transform="translate(20.130802154541016,&#10;          25)" style="text-anchor: middle;">3.0</text></g><g class="cell" transform="translate(161.04641723632812,0)"><rect class="swatch" height="15" width="40.26160337552742" style="fill: rgb(255, 102, 159);"/><text class="label" transform="translate(20.130802154541016,&#10;          25)" style="text-anchor: middle;">4.0</text></g><g class="cell" transform="translate(201.30802154541016,0)"><rect class="swatch" height="15" width="40.26160337552742" style="fill: rgb(255, 102, 102);"/><text class="label" transform="translate(20.130802154541016,&#10;          25)" style="text-anchor: middle;">5.0</text></g></g></g></g></g></g></g></g><g transform="translate(0,97)"><g><g class="tactic initial-access" transform="translate(0, 0)"><g class="techniques"><g class="technique T1189" transform="translate(0, 50.71428571428571)"><rect class="cell" height="50.71428571428571" width="86.36697247706422" fill="white" stroke="#6B7279"/><polygon class="sidebar" transform="translate(0, 50.71428571428571)" points="0,0 12,0 12,0" fill="#6B7279" visibility="hidden"/><text font-size="6.31289500509684" fill="black"><tspan x="4" y="14.190476190476186">T1189:</tspan><tspan x="4" y="28.857142857142854">Drive-by</tspan><tspan x="4" y="43.52380952380952">Compromise</tspan></text></g><g class="technique T1190" transform="translate(0, 101.42857142857142)"><rect class="cell" height="50.71428571428571" width="86.36697247706422" fill="white" stroke="#6B7279"/><polygon class="sidebar" transform="translate(0, 50.71428571428571)" points="0,0 12,0 12,0" fill="#6B7279" visibility="hidden"/><text font-size="6.31289500509684" fill="black"><tspan x="4" y="9.214285714285714">T1190:</tspan><tspan x="4" y="21.64285714285714">Exploit</tspan><tspan x="4" y="34.07142857142857">Public-Facing</tspan><tspan x="4" y="46.49999999999999">Application</tspan></text></g><g class="technique T1566" transform="translate(0, 152.14285714285714)"><rect class="cell" height="50.71428571428571" width="86.36697247706422" fill="white" stroke="#6B7279"/><polygon class="sidebar" transform="translate(0, 50.71428571428571)" points="0,0 12,0 12,12" fill="#6B7279" visibility="hidden"/><text font-size="6.31289500509684" fill="black"><tspan x="4" y="21.607142857142854">T1566:</tspan><tspan x="4" y="36.107142857142854">Phishing</tspan></text></g><g class="technique T1199" transform="translate(0, 202.85714285714283)"><rect class="cell" height="50.71428571428571" width="86.36697247706422" fill="white" stroke="#6B7279"/><polygon class="sidebar" transform="translate(0, 50.71428571428571)" points="0,0 12,0 12,0" fill="#6B7279" visibility="hidden"/><text font-size="6.31289500509684" fill="black"><tspan x="4" y="13.190476190476186">T1199:</tspan><tspan x="4" y="27.857142857142854">Trusted</tspan><tspan x="4" y="42.52380952380952">Relationship</tspan></text></g><g class="technique T1078" transform="translate(0, 253.57142857142858)"><rect class="cell" height="50.71428571428571" width="86.36697247706422" fill="#ff6666" stroke="#6B7279"/><polygon class="sidebar" transform="translate(0, 50.71428571428571)" points="0,0 12,0 12,12" fill="#6B7279" visibility="visible"/><text font-size="6.31289500509684" fill="black"><tspan x="4" y="14.190476190476186">T1078:</tspan><tspan x="4" y="28.857142857142854">Valid</tspan><tspan x="4" y="43.52380952380952">Accounts</tspan></text></g></g><g class="subtechniques"><g class="subtechnique T1078.004" transform="translate(15, 304.2857142857143)"><rect class="cell" height="50.71428571428571" width="71.36697247706422" fill="rgb(255, 102, 156)" stroke="#6B7279"/><rect class="cell" height="50.71428571428571" width="3" transform="translate(-3, 0)" fill="#6B7279" stroke="#6B7279"/><text font-size="6.31289500509684" fill="black"><tspan x="4" y="13.190476190476186">T1078.004:</tspan><tspan x="4" y="27.857142857142854">Cloud</tspan><tspan x="4" y="42.52380952380952">Accounts</tspan></text></g><g class="subtechnique T1078.001" transform="translate(15, 355)"><rect class="cell" height="50.71428571428571" width="71.36697247706422" fill="white" stroke="#6B7279"/><rect class="cell" height="50.71428571428571" width="3" transform="translate(-3, 0)" fill="#6B7279" stroke="#6B7279"/><text font-size="6.31289500509684" fill="black"><tspan x="4" y="13.190476190476186">T1078.001:</tspan><tspan x="4" y="27.857142857142854">Default</tspan><tspan x="4" y="42.52380952380952">Accounts</tspan></text></g></g><g class="tactic-label"><text font-size="9.46934250764526" fill="black" font-weight="bold"><tspan text-anchor="middle" x="43.18348623853211" y="21.607142857142854">Initial</tspan><tspan text-anchor="middle" x="43.18348623853211" y="36.107142857142854">Access</tspan></text></g></g><g class="tactic execution" transform="translate(95.96330275229357, 0)"><g class="techniques"><g class="technique T1204" transform="translate(0, 50.71428571428571)"><rect class="cell" height="50.71428571428571" width="86.36697247706422" fill="white" stroke="#6B7279"/><polygon class="sidebar" transform="translate(0, 50.71428571428571)" points="0,0 12,0 12,12" fill="#6B7279" visibility="hidden"/><text font-size="6.31289500509684" fill="black"><tspan x="4" y="14.190476190476186">T1204:</tspan><tspan x="4" y="28.857142857142854">User</tspan><tspan x="4" y="43.52380952380952">Execution</tspan></text></g></g><g class="subtechniques"/><g class="tactic-label"><text font-size="9.46934250764526" fill="black" font-weight="bold"><tspan text-anchor="middle" x="43.18348623853211" y="28.857142857142854">Execution</tspan></text></g></g><g class="tactic persistence" transform="translate(191.92660550458714, 0)"><g class="techniques"><g class="technique T1098" transform="translate(0, 50.71428571428571)"><rect class="cell" height="50.71428571428571" width="86.36697247706422" fill="rgb(227, 116, 246)" stroke="#6B7279"/><polygon class="sidebar" transform="translate(0, 50.71428571428571)" points="0,0 12,0 12,12" fill="#6B7279" visibility="hidden"/><text font-size="6.31289500509684" fill="black"><tspan x="4" y="13.190476190476186">T1098:</tspan><tspan x="4" y="27.857142857142854">Account</tspan><tspan x="4" y="42.52380952380952">Manipulation</tspan></text></g><g class="technique T1136" transform="translate(0, 101.42857142857142)"><rect class="cell" height="50.71428571428571" width="86.36697247706422" fill="white" stroke="#6B7279"/><polygon class="sidebar" transform="translate(0, 50.71428571428571)" points="0,0 12,0 12,12" fill="#6B7279" visibility="hidden"/><text font-size="6.31289500509684" fill="black"><tspan x="4" y="14.190476190476186">T1136:</tspan><tspan x="4" y="28.857142857142854">Create</tspan><tspan x="4" y="43.52380952380952">Account</tspan></text></g><g class="technique T1525" transform="translate(0, 152.14285714285714)"><rect class="cell" height="50.71428571428571" width="86.36697247706422" fill="white" stroke="#6B7279"/><polygon class="sidebar" transform="translate(0, 50.71428571428571)" points="0,0 12,0 12,0" fill="#6B7279" visibility="hidden"/><text font-size="6.31289500509684" fill="black"><tspan x="4" y="10.214285714285714">T1525:</tspan><tspan x="4" y="22.64285714285714">Implant</tspan><tspan x="4" y="35.07142857142857">Internal</tspan><tspan x="4" y="47.49999999999999">Image</tspan></text></g><g class="technique T1137" transform="translate(0, 202.85714285714283)"><rect class="cell" height="50.71428571428571" width="86.36697247706422" fill="white" stroke="#6B7279"/><polygon class="sidebar" transform="translate(0, 50.71428571428571)" points="0,0 12,0 12,12" fill="#6B7279" visibility="hidden"/><text font-size="6.31289500509684" fill="black"><tspan x="4" y="10.214285714285714">T1137:</tspan><tspan x="4" y="22.64285714285714">Office</tspan><tspan x="4" y="35.07142857142857">Application</tspan><tspan x="4" y="47.49999999999999">Startup</tspan></text></g><g class="technique T1078" transform="translate(0, 253.57142857142858)"><rect class="cell" height="50.71428571428571" width="86.36697247706422" fill="#ff6666" stroke="#6B7279"/><polygon class="sidebar" transform="translate(0, 50.71428571428571)" points="0,0 12,0 12,12" fill="#6B7279" visibility="visible"/><text font-size="6.31289500509684" fill="black"><tspan x="4" y="14.190476190476186">T1078:</tspan><tspan x="4" y="28.857142857142854">Valid</tspan><tspan x="4" y="43.52380952380952">Accounts</tspan></text></g></g><g class="subtechniques"><g class="subtechnique T1078.004" transform="translate(15, 304.2857142857143)"><rect class="cell" height="50.71428571428571" width="71.36697247706422" fill="rgb(255, 102, 156)" stroke="#6B7279"/><rect class="cell" height="50.71428571428571" width="3" transform="translate(-3, 0)" fill="#6B7279" stroke="#6B7279"/><text font-size="6.31289500509684" fill="black"><tspan x="4" y="13.190476190476186">T1078.004:</tspan><tspan x="4" y="27.857142857142854">Cloud</tspan><tspan x="4" y="42.52380952380952">Accounts</tspan></text></g><g class="subtechnique T1078.001" transform="translate(15, 355)"><rect class="cell" height="50.71428571428571" width="71.36697247706422" fill="white" stroke="#6B7279"/><rect class="cell" height="50.71428571428571" width="3" transform="translate(-3, 0)" fill="#6B7279" stroke="#6B7279"/><text font-size="6.31289500509684" fill="black"><tspan x="4" y="13.190476190476186">T1078.001:</tspan><tspan x="4" y="27.857142857142854">Default</tspan><tspan x="4" y="42.52380952380952">Accounts</tspan></text></g></g><g class="tactic-label"><text font-size="9.46934250764526" fill="black" font-weight="bold"><tspan text-anchor="middle" x="43.18348623853211" y="28.857142857142854">Persistence</tspan></text></g></g><g class="tactic privilege-escalation" transform="translate(287.88990825688074, 0)"><g class="techniques"><g class="technique T1484" transform="translate(0, 50.71428571428571)"><rect class="cell" height="50.71428571428571" width="86.36697247706422" fill="rgb(255, 102, 213)" stroke="#6B7279"/><polygon class="sidebar" transform="translate(0, 50.71428571428571)" points="0,0 12,0 12,12" fill="#6B7279" visibility="visible"/><text font-size="6.31289500509684" fill="black"><tspan x="4" y="9.214285714285714">T1484:</tspan><tspan x="4" y="21.64285714285714">Domain</tspan><tspan x="4" y="34.07142857142857">Policy</tspan><tspan x="4" y="46.49999999999999">Modification</tspan></text></g><g class="technique T1078" transform="translate(0, 152.14285714285714)"><rect class="cell" height="50.71428571428571" width="86.36697247706422" fill="#ff6666" stroke="#6B7279"/><polygon class="sidebar" transform="translate(0, 50.71428571428571)" points="0,0 12,0 12,12" fill="#6B7279" visibility="visible"/><text font-size="6.31289500509684" fill="black"><tspan x="4" y="14.190476190476186">T1078:</tspan><tspan x="4" y="28.857142857142854">Valid</tspan><tspan x="4" y="43.52380952380952">Accounts</tspan></text></g></g><g class="subtechniques"><g class="subtechnique T1484.002" transform="translate(15, 101.42857142857142)"><rect class="cell" height="50.71428571428571" width="71.36697247706422" fill="rgb(164, 146, 251)" stroke="#6B7279"/><rect class="cell" height="50.71428571428571" width="3" transform="translate(-3, 0)" fill="#6B7279" stroke="#6B7279"/><text font-size="6.31289500509684" fill="black"><tspan x="4" y="13.190476190476186">T1484.002:</tspan><tspan x="4" y="27.857142857142854">Domain Trust</tspan><tspan x="4" y="42.52380952380952">Modification</tspan></text></g><g class="subtechnique T1078.004" transform="translate(15, 202.85714285714283)"><rect class="cell" height="50.71428571428571" width="71.36697247706422" fill="rgb(255, 102, 156)" stroke="#6B7279"/><rect class="cell" height="50.71428571428571" width="3" transform="translate(-3, 0)" fill="#6B7279" stroke="#6B7279"/><text font-size="6.31289500509684" fill="black"><tspan x="4" y="13.190476190476186">T1078.004:</tspan><tspan x="4" y="27.857142857142854">Cloud</tspan><tspan x="4" y="42.52380952380952">Accounts</tspan></text></g><g class="subtechnique T1078.001" transform="translate(15, 253.57142857142858)"><rect class="cell" height="50.71428571428571" width="71.36697247706422" fill="white" stroke="#6B7279"/><rect class="cell" height="50.71428571428571" width="3" transform="translate(-3, 0)" fill="#6B7279" stroke="#6B7279"/><text font-size="6.31289500509684" fill="black"><tspan x="4" y="13.190476190476186">T1078.001:</tspan><tspan x="4" y="27.857142857142854">Default</tspan><tspan x="4" y="42.52380952380952">Accounts</tspan></text></g></g><g class="tactic-label"><text font-size="9.46934250764526" fill="black" font-weight="bold"><tspan text-anchor="middle" x="43.18348623853211" y="21.607142857142854">Privilege</tspan><tspan text-anchor="middle" x="43.18348623853211" y="36.107142857142854">Escalation</tspan></text></g></g><g class="tactic defense-evasion" transform="translate(383.8532110091743, 0)"><g class="techniques"><g class="technique T1484" transform="translate(0, 50.71428571428571)"><rect class="cell" height="50.71428571428571" width="86.36697247706422" fill="rgb(255, 102, 213)" stroke="#6B7279"/><polygon class="sidebar" transform="translate(0, 50.71428571428571)" points="0,0 12,0 12,12" fill="#6B7279" visibility="visible"/><text font-size="6.31289500509684" fill="black"><tspan x="4" y="9.214285714285714">T1484:</tspan><tspan x="4" y="21.64285714285714">Domain</tspan><tspan x="4" y="34.07142857142857">Policy</tspan><tspan x="4" y="46.49999999999999">Modification</tspan></text></g><g class="technique T1564" transform="translate(0, 152.14285714285714)"><rect class="cell" height="50.71428571428571" width="86.36697247706422" fill="white" stroke="#6B7279"/><polygon class="sidebar" transform="translate(0, 50.71428571428571)" points="0,0 12,0 12,12" fill="#6B7279" visibility="hidden"/><text font-size="6.31289500509684" fill="black"><tspan x="4" y="14.190476190476186">T1564:</tspan><tspan x="4" y="28.857142857142854">Hide</tspan><tspan x="4" y="43.52380952380952">Artifacts</tspan></text></g><g class="technique T1562" transform="translate(0, 202.85714285714283)"><rect class="cell" height="50.71428571428571" width="86.36697247706422" fill="white" stroke="#6B7279"/><polygon class="sidebar" transform="translate(0, 50.71428571428571)" points="0,0 12,0 12,12" fill="#6B7279" visibility="hidden"/><text font-size="6.31289500509684" fill="black"><tspan x="4" y="14.190476190476186">T1562:</tspan><tspan x="4" y="28.857142857142854">Impair</tspan><tspan x="4" y="43.52380952380952">Defenses</tspan></text></g><g class="technique T1578" transform="translate(0, 253.57142857142858)"><rect class="cell" height="50.71428571428571" width="86.36697247706422" fill="rgb(227, 116, 246)" stroke="#6B7279"/><polygon class="sidebar" transform="translate(0, 50.71428571428571)" points="0,0 12,0 12,12" fill="#6B7279" visibility="hidden"/><text font-size="6.31289500509684" fill="black"><tspan x="4" y="13.190476190476186">T1578: Modify</tspan><tspan x="4" y="27.857142857142854">Cloud Compute</tspan><tspan x="4" y="42.52380952380952">Infrastructure</tspan></text></g><g class="technique T1535" transform="translate(0, 304.2857142857143)"><rect class="cell" height="50.71428571428571" width="86.36697247706422" fill="white" stroke="#6B7279"/><polygon class="sidebar" transform="translate(0, 50.71428571428571)" points="0,0 12,0 12,0" fill="#6B7279" visibility="hidden"/><text font-size="6.31289500509684" fill="black"><tspan x="4" y="12.190476190476186">T1535:</tspan><tspan x="4" y="26.857142857142854">Unused/Unsupported</tspan><tspan x="4" y="41.52380952380952">Cloud Regions</tspan></text></g><g class="technique T1550" transform="translate(0, 355)"><rect class="cell" height="50.71428571428571" width="86.36697247706422" fill="white" stroke="#6B7279"/><polygon class="sidebar" transform="translate(0, 50.71428571428571)" points="0,0 12,0 12,12" fill="#6B7279" visibility="hidden"/><text font-size="6.31289500509684" fill="black"><tspan x="4" y="9.214285714285714">T1550:</tspan><tspan x="4" y="21.64285714285714">Use Alternate</tspan><tspan x="4" y="34.07142857142857">Authentication</tspan><tspan x="4" y="46.49999999999999">Material</tspan></text></g><g class="technique T1078" transform="translate(0, 405.71428571428567)"><rect class="cell" height="50.71428571428571" width="86.36697247706422" fill="#ff6666" stroke="#6B7279"/><polygon class="sidebar" transform="translate(0, 50.71428571428571)" points="0,0 12,0 12,12" fill="#6B7279" visibility="visible"/><text font-size="6.31289500509684" fill="black"><tspan x="4" y="14.190476190476186">T1078:</tspan><tspan x="4" y="28.857142857142854">Valid</tspan><tspan x="4" y="43.52380952380952">Accounts</tspan></text></g></g><g class="subtechniques"><g class="subtechnique T1484.002" transform="translate(15, 101.42857142857142)"><rect class="cell" height="50.71428571428571" width="71.36697247706422" fill="rgb(164, 146, 251)" stroke="#6B7279"/><rect class="cell" height="50.71428571428571" width="3" transform="translate(-3, 0)" fill="#6B7279" stroke="#6B7279"/><text font-size="6.31289500509684" fill="black"><tspan x="4" y="13.190476190476186">T1484.002:</tspan><tspan x="4" y="27.857142857142854">Domain Trust</tspan><tspan x="4" y="42.52380952380952">Modification</tspan></text></g><g class="subtechnique T1078.004" transform="translate(15, 456.42857142857144)"><rect class="cell" height="50.71428571428571" width="71.36697247706422" fill="rgb(255, 102, 156)" stroke="#6B7279"/><rect class="cell" height="50.71428571428571" width="3" transform="translate(-3, 0)" fill="#6B7279" stroke="#6B7279"/><text font-size="6.31289500509684" fill="black"><tspan x="4" y="13.190476190476186">T1078.004:</tspan><tspan x="4" y="27.857142857142854">Cloud</tspan><tspan x="4" y="42.52380952380952">Accounts</tspan></text></g><g class="subtechnique T1078.001" transform="translate(15, 507.14285714285717)"><rect class="cell" height="50.71428571428571" width="71.36697247706422" fill="white" stroke="#6B7279"/><rect class="cell" height="50.71428571428571" width="3" transform="translate(-3, 0)" fill="#6B7279" stroke="#6B7279"/><text font-size="6.31289500509684" fill="black"><tspan x="4" y="13.190476190476186">T1078.001:</tspan><tspan x="4" y="27.857142857142854">Default</tspan><tspan x="4" y="42.52380952380952">Accounts</tspan></text></g></g><g class="tactic-label"><text font-size="9.46934250764526" fill="black" font-weight="bold"><tspan text-anchor="middle" x="43.18348623853211" y="21.607142857142854">Defense</tspan><tspan text-anchor="middle" x="43.18348623853211" y="36.107142857142854">Evasion</tspan></text></g></g><g class="tactic credential-access" transform="translate(479.81651376146783, 0)"><g class="techniques"><g class="technique T1110" transform="translate(0, 50.71428571428571)"><rect class="cell" height="50.71428571428571" width="86.36697247706422" fill="white" stroke="#6B7279"/><polygon class="sidebar" transform="translate(0, 50.71428571428571)" points="0,0 12,0 12,12" fill="#6B7279" visibility="hidden"/><text font-size="6.31289500509684" fill="black"><tspan x="4" y="14.190476190476186">T1110:</tspan><tspan x="4" y="28.857142857142854">Brute</tspan><tspan x="4" y="43.52380952380952">Force</tspan></text></g><g class="technique T1606" transform="translate(0, 101.42857142857142)"><rect class="cell" height="50.71428571428571" width="86.36697247706422" fill="white" stroke="#6B7279"/><polygon class="sidebar" transform="translate(0, 50.71428571428571)" points="0,0 12,0 12,12" fill="#6B7279" visibility="hidden"/><text font-size="6.31289500509684" fill="black"><tspan x="4" y="14.190476190476186">T1606:</tspan><tspan x="4" y="28.857142857142854">Forge Web</tspan><tspan x="4" y="43.52380952380952">Credentials</tspan></text></g><g class="technique T1621" transform="translate(0, 152.14285714285714)"><rect class="cell" height="50.71428571428571" width="86.36697247706422" fill="rgb(164, 146, 251)" stroke="#6B7279"/><polygon class="sidebar" transform="translate(0, 50.71428571428571)" points="0,0 12,0 12,0" fill="#6B7279" visibility="hidden"/><text font-size="6.31289500509684" fill="black"><tspan x="4" y="8.214285714285714">T1621:</tspan><tspan x="4" y="20.64285714285714">Multi-Factor</tspan><tspan x="4" y="33.07142857142857">Authentication</tspan><tspan x="4" y="45.49999999999999">Request Generation</tspan></text></g><g class="technique T1040" transform="translate(0, 202.85714285714283)"><rect class="cell" height="50.71428571428571" width="86.36697247706422" fill="white" stroke="#6B7279"/><polygon class="sidebar" transform="translate(0, 50.71428571428571)" points="0,0 12,0 12,0" fill="#6B7279" visibility="hidden"/><text font-size="6.31289500509684" fill="black"><tspan x="4" y="14.190476190476186">T1040:</tspan><tspan x="4" y="28.857142857142854">Network</tspan><tspan x="4" y="43.52380952380952">Sniffing</tspan></text></g><g class="technique T1528" transform="translate(0, 253.57142857142858)"><rect class="cell" height="50.71428571428571" width="86.36697247706422" fill="white" stroke="#6B7279"/><polygon class="sidebar" transform="translate(0, 50.71428571428571)" points="0,0 12,0 12,0" fill="#6B7279" visibility="hidden"/><text font-size="6.31289500509684" fill="black"><tspan x="4" y="13.190476190476186">T1528: Steal</tspan><tspan x="4" y="27.857142857142854">Application</tspan><tspan x="4" y="42.52380952380952">Access Token</tspan></text></g><g class="technique T1539" transform="translate(0, 304.2857142857143)"><rect class="cell" height="50.71428571428571" width="86.36697247706422" fill="white" stroke="#6B7279"/><polygon class="sidebar" transform="translate(0, 50.71428571428571)" points="0,0 12,0 12,0" fill="#6B7279" visibility="hidden"/><text font-size="6.31289500509684" fill="black"><tspan x="4" y="10.214285714285714">T1539:</tspan><tspan x="4" y="22.64285714285714">Steal</tspan><tspan x="4" y="35.07142857142857">Web Session</tspan><tspan x="4" y="47.49999999999999">Cookie</tspan></text></g><g class="technique T1552" transform="translate(0, 355)"><rect class="cell" height="50.71428571428571" width="86.36697247706422" fill="white" stroke="#6B7279"/><polygon class="sidebar" transform="translate(0, 50.71428571428571)" points="0,0 12,0 12,12" fill="#6B7279" visibility="hidden"/><text font-size="6.31289500509684" fill="black"><tspan x="4" y="14.190476190476186">T1552:</tspan><tspan x="4" y="28.857142857142854">Unsecured</tspan><tspan x="4" y="43.52380952380952">Credentials</tspan></text></g></g><g class="subtechniques"/><g class="tactic-label"><text font-size="9.46934250764526" fill="black" font-weight="bold"><tspan text-anchor="middle" x="43.18348623853211" y="21.607142857142854">Credential</tspan><tspan text-anchor="middle" x="43.18348623853211" y="36.107142857142854">Access</tspan></text></g></g><g class="tactic discovery" transform="translate(575.7798165137615, 0)"><g class="techniques"><g class="technique T1087" transform="translate(0, 50.71428571428571)"><rect class="cell" height="50.71428571428571" width="86.36697247706422" fill="white" stroke="#6B7279"/><polygon class="sidebar" transform="translate(0, 50.71428571428571)" points="0,0 12,0 12,12" fill="#6B7279" visibility="hidden"/><text font-size="6.31289500509684" fill="black"><tspan x="4" y="14.190476190476186">T1087:</tspan><tspan x="4" y="28.857142857142854">Account</tspan><tspan x="4" y="43.52380952380952">Discovery</tspan></text></g><g class="technique T1580" transform="translate(0, 101.42857142857142)"><rect class="cell" height="50.71428571428571" width="86.36697247706422" fill="white" stroke="#6B7279"/><polygon class="sidebar" transform="translate(0, 50.71428571428571)" points="0,0 12,0 12,0" fill="#6B7279" visibility="hidden"/><text font-size="6.31289500509684" fill="black"><tspan x="4" y="13.190476190476186">T1580: Cloud</tspan><tspan x="4" y="27.857142857142854">Infrastructure</tspan><tspan x="4" y="42.52380952380952">Discovery</tspan></text></g><g class="technique T1538" transform="translate(0, 152.14285714285714)"><rect class="cell" height="50.71428571428571" width="86.36697247706422" fill="white" stroke="#6B7279"/><polygon class="sidebar" transform="translate(0, 50.71428571428571)" points="0,0 12,0 12,0" fill="#6B7279" visibility="hidden"/><text font-size="6.31289500509684" fill="black"><tspan x="4" y="10.214285714285714">T1538:</tspan><tspan x="4" y="22.64285714285714">Cloud</tspan><tspan x="4" y="35.07142857142857">Service</tspan><tspan x="4" y="47.49999999999999">Dashboard</tspan></text></g><g class="technique T1526" transform="translate(0, 202.85714285714283)"><rect class="cell" height="50.71428571428571" width="86.36697247706422" fill="white" stroke="#6B7279"/><polygon class="sidebar" transform="translate(0, 50.71428571428571)" points="0,0 12,0 12,0" fill="#6B7279" visibility="hidden"/><text font-size="6.31289500509684" fill="black"><tspan x="4" y="10.214285714285714">T1526:</tspan><tspan x="4" y="22.64285714285714">Cloud</tspan><tspan x="4" y="35.07142857142857">Service</tspan><tspan x="4" y="47.49999999999999">Discovery</tspan></text></g><g class="technique T1619" transform="translate(0, 253.57142857142858)"><rect class="cell" height="50.71428571428571" width="86.36697247706422" fill="white" stroke="#6B7279"/><polygon class="sidebar" transform="translate(0, 50.71428571428571)" points="0,0 12,0 12,0" fill="#6B7279" visibility="hidden"/><text font-size="6.31289500509684" fill="black"><tspan x="4" y="9.214285714285714">T1619: Cloud</tspan><tspan x="4" y="21.64285714285714">Storage</tspan><tspan x="4" y="34.07142857142857">Object</tspan><tspan x="4" y="46.49999999999999">Discovery</tspan></text></g><g class="technique T1046" transform="translate(0, 304.2857142857143)"><rect class="cell" height="50.71428571428571" width="86.36697247706422" fill="white" stroke="#6B7279"/><polygon class="sidebar" transform="translate(0, 50.71428571428571)" points="0,0 12,0 12,0" fill="#6B7279" visibility="hidden"/><text font-size="6.31289500509684" fill="black"><tspan x="4" y="10.214285714285714">T1046:</tspan><tspan x="4" y="22.64285714285714">Network</tspan><tspan x="4" y="35.07142857142857">Service</tspan><tspan x="4" y="47.49999999999999">Discovery</tspan></text></g><g class="technique T1040" transform="translate(0, 355)"><rect class="cell" height="50.71428571428571" width="86.36697247706422" fill="white" stroke="#6B7279"/><polygon class="sidebar" transform="translate(0, 50.71428571428571)" points="0,0 12,0 12,0" fill="#6B7279" visibility="hidden"/><text font-size="6.31289500509684" fill="black"><tspan x="4" y="14.190476190476186">T1040:</tspan><tspan x="4" y="28.857142857142854">Network</tspan><tspan x="4" y="43.52380952380952">Sniffing</tspan></text></g><g class="technique T1201" transform="translate(0, 405.71428571428567)"><rect class="cell" height="50.71428571428571" width="86.36697247706422" fill="white" stroke="#6B7279"/><polygon class="sidebar" transform="translate(0, 50.71428571428571)" points="0,0 12,0 12,0" fill="#6B7279" visibility="hidden"/><text font-size="6.31289500509684" fill="black"><tspan x="4" y="10.214285714285714">T1201:</tspan><tspan x="4" y="22.64285714285714">Password</tspan><tspan x="4" y="35.07142857142857">Policy</tspan><tspan x="4" y="47.49999999999999">Discovery</tspan></text></g><g class="technique T1069" transform="translate(0, 456.42857142857144)"><rect class="cell" height="50.71428571428571" width="86.36697247706422" fill="white" stroke="#6B7279"/><polygon class="sidebar" transform="translate(0, 50.71428571428571)" points="0,0 12,0 12,12" fill="#6B7279" visibility="hidden"/><text font-size="6.31289500509684" fill="black"><tspan x="4" y="10.214285714285714">T1069:</tspan><tspan x="4" y="22.64285714285714">Permission</tspan><tspan x="4" y="35.07142857142857">Groups</tspan><tspan x="4" y="47.49999999999999">Discovery</tspan></text></g><g class="technique T1518" transform="translate(0, 507.14285714285717)"><rect class="cell" height="50.71428571428571" width="86.36697247706422" fill="white" stroke="#6B7279"/><polygon class="sidebar" transform="translate(0, 50.71428571428571)" points="0,0 12,0 12,12" fill="#6B7279" visibility="hidden"/><text font-size="6.31289500509684" fill="black"><tspan x="4" y="14.190476190476186">T1518:</tspan><tspan x="4" y="28.857142857142854">Software</tspan><tspan x="4" y="43.52380952380952">Discovery</tspan></text></g><g class="technique T1082" transform="translate(0, 557.8571428571429)"><rect class="cell" height="50.71428571428571" width="86.36697247706422" fill="white" stroke="#6B7279"/><polygon class="sidebar" transform="translate(0, 50.71428571428571)" points="0,0 12,0 12,0" fill="#6B7279" visibility="hidden"/><text font-size="6.31289500509684" fill="black"><tspan x="4" y="10.214285714285714">T1082:</tspan><tspan x="4" y="22.64285714285714">System</tspan><tspan x="4" y="35.07142857142857">Information</tspan><tspan x="4" y="47.49999999999999">Discovery</tspan></text></g><g class="technique T1614" transform="translate(0, 608.5714285714286)"><rect class="cell" height="50.71428571428571" width="86.36697247706422" fill="white" stroke="#6B7279"/><polygon class="sidebar" transform="translate(0, 50.71428571428571)" points="0,0 12,0 12,0" fill="#6B7279" visibility="hidden"/><text font-size="6.31289500509684" fill="black"><tspan x="4" y="10.214285714285714">T1614:</tspan><tspan x="4" y="22.64285714285714">System</tspan><tspan x="4" y="35.07142857142857">Location</tspan><tspan x="4" y="47.49999999999999">Discovery</tspan></text></g><g class="technique T1049" transform="translate(0, 659.2857142857143)"><rect class="cell" height="50.71428571428571" width="86.36697247706422" fill="white" stroke="#6B7279"/><polygon class="sidebar" transform="translate(0, 50.71428571428571)" points="0,0 12,0 12,0" fill="#6B7279" visibility="hidden"/><text font-size="6.31289500509684" fill="black"><tspan x="4" y="9.214285714285714">T1049: System</tspan><tspan x="4" y="21.64285714285714">Network</tspan><tspan x="4" y="34.07142857142857">Connections</tspan><tspan x="4" y="46.49999999999999">Discovery</tspan></text></g></g><g class="subtechniques"/><g class="tactic-label"><text font-size="9.46934250764526" fill="black" font-weight="bold"><tspan text-anchor="middle" x="43.18348623853211" y="28.857142857142854">Discovery</tspan></text></g></g><g class="tactic lateral-movement" transform="translate(671.743119266055, 0)"><g class="techniques"><g class="technique T1534" transform="translate(0, 50.71428571428571)"><rect class="cell" height="50.71428571428571" width="86.36697247706422" fill="white" stroke="#6B7279"/><polygon class="sidebar" transform="translate(0, 50.71428571428571)" points="0,0 12,0 12,0" fill="#6B7279" visibility="hidden"/><text font-size="6.31289500509684" fill="black"><tspan x="4" y="13.190476190476186">T1534:</tspan><tspan x="4" y="27.857142857142854">Internal</tspan><tspan x="4" y="42.52380952380952">Spearphishing</tspan></text></g><g class="technique T1080" transform="translate(0, 101.42857142857142)"><rect class="cell" height="50.71428571428571" width="86.36697247706422" fill="white" stroke="#6B7279"/><polygon class="sidebar" transform="translate(0, 50.71428571428571)" points="0,0 12,0 12,0" fill="#6B7279" visibility="hidden"/><text font-size="6.31289500509684" fill="black"><tspan x="4" y="10.214285714285714">T1080:</tspan><tspan x="4" y="22.64285714285714">Taint</tspan><tspan x="4" y="35.07142857142857">Shared</tspan><tspan x="4" y="47.49999999999999">Content</tspan></text></g><g class="technique T1550" transform="translate(0, 152.14285714285714)"><rect class="cell" height="50.71428571428571" width="86.36697247706422" fill="white" stroke="#6B7279"/><polygon class="sidebar" transform="translate(0, 50.71428571428571)" points="0,0 12,0 12,12" fill="#6B7279" visibility="hidden"/><text font-size="6.31289500509684" fill="black"><tspan x="4" y="9.214285714285714">T1550:</tspan><tspan x="4" y="21.64285714285714">Use Alternate</tspan><tspan x="4" y="34.07142857142857">Authentication</tspan><tspan x="4" y="46.49999999999999">Material</tspan></text></g></g><g class="subtechniques"/><g class="tactic-label"><text font-size="9.46934250764526" fill="black" font-weight="bold"><tspan text-anchor="middle" x="43.18348623853211" y="21.607142857142854">Lateral</tspan><tspan text-anchor="middle" x="43.18348623853211" y="36.107142857142854">Movement</tspan></text></g></g><g class="tactic collection" transform="translate(767.7064220183486, 0)"><g class="techniques"><g class="technique T1119" transform="translate(0, 50.71428571428571)"><rect class="cell" height="50.71428571428571" width="86.36697247706422" fill="white" stroke="#6B7279"/><polygon class="sidebar" transform="translate(0, 50.71428571428571)" points="0,0 12,0 12,0" fill="#6B7279" visibility="hidden"/><text font-size="6.31289500509684" fill="black"><tspan x="4" y="14.190476190476186">T1119:</tspan><tspan x="4" y="28.857142857142854">Automated</tspan><tspan x="4" y="43.52380952380952">Collection</tspan></text></g><g class="technique T1530" transform="translate(0, 101.42857142857142)"><rect class="cell" height="50.71428571428571" width="86.36697247706422" fill="white" stroke="#6B7279"/><polygon class="sidebar" transform="translate(0, 50.71428571428571)" points="0,0 12,0 12,0" fill="#6B7279" visibility="hidden"/><text font-size="6.31289500509684" fill="black"><tspan x="4" y="10.214285714285714">T1530: Data</tspan><tspan x="4" y="22.64285714285714">from Cloud</tspan><tspan x="4" y="35.07142857142857">Storage</tspan><tspan x="4" y="47.49999999999999">Object</tspan></text></g><g class="technique T1213" transform="translate(0, 152.14285714285714)"><rect class="cell" height="50.71428571428571" width="86.36697247706422" fill="white" stroke="#6B7279"/><polygon class="sidebar" transform="translate(0, 50.71428571428571)" points="0,0 12,0 12,12" fill="#6B7279" visibility="hidden"/><text font-size="6.31289500509684" fill="black"><tspan x="4" y="9.214285714285714">T1213:</tspan><tspan x="4" y="21.64285714285714">Data from</tspan><tspan x="4" y="34.07142857142857">Information</tspan><tspan x="4" y="46.49999999999999">Repositories</tspan></text></g><g class="technique T1074" transform="translate(0, 202.85714285714283)"><rect class="cell" height="50.71428571428571" width="86.36697247706422" fill="white" stroke="#6B7279"/><polygon class="sidebar" transform="translate(0, 50.71428571428571)" points="0,0 12,0 12,12" fill="#6B7279" visibility="hidden"/><text font-size="6.31289500509684" fill="black"><tspan x="4" y="14.190476190476186">T1074:</tspan><tspan x="4" y="28.857142857142854">Data</tspan><tspan x="4" y="43.52380952380952">Staged</tspan></text></g><g class="technique T1114" transform="translate(0, 253.57142857142858)"><rect class="cell" height="50.71428571428571" width="86.36697247706422" fill="white" stroke="#6B7279"/><polygon class="sidebar" transform="translate(0, 50.71428571428571)" points="0,0 12,0 12,12" fill="#6B7279" visibility="hidden"/><text font-size="6.31289500509684" fill="black"><tspan x="4" y="14.190476190476186">T1114:</tspan><tspan x="4" y="28.857142857142854">Email</tspan><tspan x="4" y="43.52380952380952">Collection</tspan></text></g></g><g class="subtechniques"/><g class="tactic-label"><text font-size="9.46934250764526" fill="black" font-weight="bold"><tspan text-anchor="middle" x="43.18348623853211" y="28.857142857142854">Collection</tspan></text></g></g><g class="tactic exfiltration" transform="translate(863.6697247706421, 0)"><g class="techniques"><g class="technique T1537" transform="translate(0, 50.71428571428571)"><rect class="cell" height="50.71428571428571" width="86.36697247706422" fill="rgb(164, 146, 251)" stroke="#6B7279"/><polygon class="sidebar" transform="translate(0, 50.71428571428571)" points="0,0 12,0 12,0" fill="#6B7279" visibility="hidden"/><text font-size="6.31289500509684" fill="black"><tspan x="4" y="9.214285714285714">T1537:</tspan><tspan x="4" y="21.64285714285714">Transfer</tspan><tspan x="4" y="34.07142857142857">Data to</tspan><tspan x="4" y="46.49999999999999">Cloud Account</tspan></text></g></g><g class="subtechniques"/><g class="tactic-label"><text font-size="9.46934250764526" fill="black" font-weight="bold"><tspan text-anchor="middle" x="43.18348623853211" y="27.857142857142854">Exfiltration</tspan></text></g></g><g class="tactic impact" transform="translate(959.6330275229357, 0)"><g class="techniques"><g class="technique T1531" transform="translate(0, 50.71428571428571)"><rect class="cell" height="50.71428571428571" width="86.36697247706422" fill="white" stroke="#6B7279"/><polygon class="sidebar" transform="translate(0, 50.71428571428571)" points="0,0 12,0 12,0" fill="#6B7279" visibility="hidden"/><text font-size="6.31289500509684" fill="black"><tspan x="4" y="10.214285714285714">T1531:</tspan><tspan x="4" y="22.64285714285714">Account</tspan><tspan x="4" y="35.07142857142857">Access</tspan><tspan x="4" y="47.49999999999999">Removal</tspan></text></g><g class="technique T1485" transform="translate(0, 101.42857142857142)"><rect class="cell" height="50.71428571428571" width="86.36697247706422" fill="white" stroke="#6B7279"/><polygon class="sidebar" transform="translate(0, 50.71428571428571)" points="0,0 12,0 12,0" fill="#6B7279" visibility="hidden"/><text font-size="6.31289500509684" fill="black"><tspan x="4" y="21.607142857142854">T1485: Data</tspan><tspan x="4" y="36.107142857142854">Destruction</tspan></text></g><g class="technique T1486" transform="translate(0, 152.14285714285714)"><rect class="cell" height="50.71428571428571" width="86.36697247706422" fill="white" stroke="#6B7279"/><polygon class="sidebar" transform="translate(0, 50.71428571428571)" points="0,0 12,0 12,0" fill="#6B7279" visibility="hidden"/><text font-size="6.31289500509684" fill="black"><tspan x="4" y="14.190476190476186">T1486: Data</tspan><tspan x="4" y="28.857142857142854">Encrypted</tspan><tspan x="4" y="43.52380952380952">for Impact</tspan></text></g><g class="technique T1491" transform="translate(0, 202.85714285714283)"><rect class="cell" height="50.71428571428571" width="86.36697247706422" fill="white" stroke="#6B7279"/><polygon class="sidebar" transform="translate(0, 50.71428571428571)" points="0,0 12,0 12,12" fill="#6B7279" visibility="hidden"/><text font-size="6.31289500509684" fill="black"><tspan x="4" y="21.607142857142854">T1491:</tspan><tspan x="4" y="36.107142857142854">Defacement</tspan></text></g><g class="technique T1499" transform="translate(0, 253.57142857142858)"><rect class="cell" height="50.71428571428571" width="86.36697247706422" fill="white" stroke="#6B7279"/><polygon class="sidebar" transform="translate(0, 50.71428571428571)" points="0,0 12,0 12,12" fill="#6B7279" visibility="hidden"/><text font-size="6.31289500509684" fill="black"><tspan x="4" y="10.214285714285714">T1499:</tspan><tspan x="4" y="22.64285714285714">Endpoint</tspan><tspan x="4" y="35.07142857142857">Denial</tspan><tspan x="4" y="47.49999999999999">of Service</tspan></text></g><g class="technique T1498" transform="translate(0, 304.2857142857143)"><rect class="cell" height="50.71428571428571" width="86.36697247706422" fill="white" stroke="#6B7279"/><polygon class="sidebar" transform="translate(0, 50.71428571428571)" points="0,0 12,0 12,12" fill="#6B7279" visibility="hidden"/><text font-size="6.31289500509684" fill="black"><tspan x="4" y="10.214285714285714">T1498:</tspan><tspan x="4" y="22.64285714285714">Network</tspan><tspan x="4" y="35.07142857142857">Denial</tspan><tspan x="4" y="47.49999999999999">of Service</tspan></text></g><g class="technique T1496" transform="translate(0, 355)"><rect class="cell" height="50.71428571428571" width="86.36697247706422" fill="rgb(227, 116, 246)" stroke="#6B7279"/><polygon class="sidebar" transform="translate(0, 50.71428571428571)" points="0,0 12,0 12,0" fill="#6B7279" visibility="hidden"/><text font-size="6.31289500509684" fill="black"><tspan x="4" y="14.190476190476186">T1496:</tspan><tspan x="4" y="28.857142857142854">Resource</tspan><tspan x="4" y="43.52380952380952">Hijacking</tspan></text></g></g><g class="subtechniques"/><g class="tactic-label"><text font-size="9.46934250764526" fill="black" font-weight="bold"><tspan text-anchor="middle" x="43.18348623853211" y="28.857142857142854">Impact</tspan></text></g></g></g></g></g></svg>
